# xmcd CD database file
#
# Track frame offsets:
#	150
#	14750
#	31612
#	45105
#	63955
#	80192
#	91872
#	113267
#	130262
#	153022
#
# Disc length: 2295 seconds
#
# Revision: 1
# Processed by: cddbd v1.4PL0 Copyright (c) Steve Scherf et al.
# Submitted via: CDex 1.50Beta7
#
DISCID=6608f50a
DTITLE=侯志堅 - Sensitivity 敏感
DYEAR=1900
DGENRE=New Age
TTITLE0=After Rain 遇見清新
TTITLE1=Green Time 非常想要自由
TTITLE2=Butterfly 想到蝴蝶
TTITLE3=Walking 很久沒走路了
TTITLE4=Jungle 我在叢林遇到老外
TTITLE5=Drunken 喝了點酒
TTITLE6=China Blue 憂鬱結束前
TTITLE7=Run 沉默太久了
TTITLE8=City Think 城市的眼角餘光
TTITLE9=Light Season 淡季
EXTD=
EXTT0=
EXTT1=
EXTT2=
EXTT3=
EXTT4=
EXTT5=
EXTT6=
EXTT7=
EXTT8=
EXTT9=
PLAYORDER=
